<svg width="36" height="32" viewBox="0 0 36 32" fill="none" xmlns="http://www.w3.org/2000/svg">
<path d="M35.0596 13H31.5255V9C31.5255 8.45 31.1279 8 30.642 8H28.875C28.3891 8 27.9915 8.45 27.9915 9V13H24.4575C23.9715 13 23.574 13.45 23.574 14V16C23.574 16.55 23.9715 17 24.4575 17H27.9915V21C27.9915 21.55 28.3891 22 28.875 22H30.642C31.1279 22 31.5255 21.55 31.5255 21V17H35.0596C35.5455 17 35.9431 16.55 35.9431 16V14C35.9431 13.45 35.5455 13 35.0596 13ZM12.9719 16C16.8759 16 20.0399 12.4187 20.0399 8C20.0399 3.58125 16.8759 0 12.9719 0C9.06788 0 5.90382 3.58125 5.90382 8C5.90382 12.4187 9.06788 16 12.9719 16ZM17.9195 18H16.9974C15.7715 18.6375 14.4076 19 12.9719 19C11.5362 19 10.1778 18.6375 8.9464 18H8.02424C3.92698 18 0.602783 21.7625 0.602783 26.4V29C0.602783 30.6562 1.79 32 3.2533 32H22.6905C24.1538 32 25.341 30.6562 25.341 29V26.4C25.341 21.7625 22.0168 18 17.9195 18Z" fill="black"/>
</svg>
