<svg width="27" height="33" viewBox="0 0 27 33" fill="none" xmlns="http://www.w3.org/2000/svg">
<path d="M26.0457 2.06251H19.0137L18.4629 0.857238C18.3462 0.599563 18.1665 0.382813 17.9439 0.231371C17.7213 0.0799294 17.4647 -0.000195162 17.203 1.13004e-05H10.505C10.2439 -0.00109282 9.98776 0.078733 9.76597 0.230343C9.54418 0.381953 9.36571 0.599215 9.25099 0.857238L8.70015 2.06251H1.66816C1.41949 2.06251 1.18101 2.17116 1.00518 2.36456C0.829343 2.55795 0.73056 2.82026 0.73056 3.09376L0.73056 5.15626C0.73056 5.42976 0.829343 5.69207 1.00518 5.88546C1.18101 6.07886 1.41949 6.18751 1.66816 6.18751H26.0457C26.2944 6.18751 26.5329 6.07886 26.7087 5.88546C26.8846 5.69207 26.9833 5.42976 26.9833 5.15626V3.09376C26.9833 2.82026 26.8846 2.55795 26.7087 2.36456C26.5329 2.17116 26.2944 2.06251 26.0457 2.06251ZM3.84808 30.0996C3.8928 30.885 4.20798 31.6222 4.72945 32.1611C5.25093 32.6999 5.93951 32.9999 6.65501 33H21.0589C21.7744 32.9999 22.463 32.6999 22.9844 32.1611C23.5059 31.6222 23.8211 30.885 23.8658 30.0996L25.1081 8.25001H2.60576L3.84808 30.0996Z" fill="black"/>
</svg>
